<svg id="Layer_1" data-name="Layer 1" xmlns="http://www.w3.org/2000/svg" viewBox="0 0 148.4 142.4"><defs><style>.cls-1{fill:#fff;}.cls-1,.cls-2{fill-rule:evenodd;}.cls-2{fill:#45697a;}</style></defs><path class="cls-1" d="M54.1,29l8.5,18.6c8.2-2.1,13.6-3,19.6.1l2.7-1.5,9.9-16.4C82.6,25.7,66.3,26.2,54.1,29Zm23.8.7A3.25,3.25,0,1,1,74.7,33,3.31,3.31,0,0,1,77.9,29.7Zm-8-1.7a3.25,3.25,0,1,1-3.2,3.3A3.31,3.31,0,0,1,69.9,28ZM82.7,45.3a39.58,39.58,0,0,0-17.1.8h-.3c-1.2.2-1.6-1.7-1.6-3.3-.1-3.8.6-7.8,6-8h.2c2.7,0,4.2,1.1,5,2.6a7,7,0,0,1,3.6-1C86.3,36.4,84.7,45.6,82.7,45.3Z"/><path class="cls-1" d="M66.5,107.4l-.1,2.6h2.3a1.47,1.47,0,0,0,.4-.2v-2.5H66.5Zm6.6-4.6V105l2.3.1v-2.3Zm9.1,4.7H79.7a7.84,7.84,0,0,0-.1,2.7h2c.9-.1.4,0,.6-.2Zm0,0H79.7a7.84,7.84,0,0,0-.1,2.7h2c.9-.1.4,0,.6-.2ZM73.1,105l2.3.1v-2.3H73.1Zm-6.7,5.1h2.3a1.47,1.47,0,0,0,.4-.2v-2.5H66.6Zm27.4.1L83.5,95.5c-6,3.1-11.5,2.2-19.6.1l-9.5,14.5-1.7,2.6c12.3,4.3,31.2,4.8,43.5.7ZM80.9,98.5c.8,0,1.9,2,2.5,2.7l2.5,3.2H80.7L75,98.6ZM78.5,104c.9.8,1,1.3,2.7,1.3h4.1v6.8H75.9v-4.6H72.7v4.6H63.3v-6.8a25.08,25.08,0,0,1,3.9-.1c1.8,0,2.1-.3,2.9-1.3l4.2-3.9Zm-13-2.8c.6-.7,1.7-2.7,2.5-2.7h5.9l-5.6,5.8H63.1Zm21.2,13.5H61.8v-1.6H86.7Zm-5.1-4.6c.9-.1.4,0,.6-.2v-2.5H79.7a7.84,7.84,0,0,0-.1,2.7Zm-6.2-7.3H73.1V105l2.3.1Zm-9,7.3h2.3a1.47,1.47,0,0,0,.4-.2v-2.5H66.6Zm.1-2.7-.1,2.6h2.3a1.47,1.47,0,0,0,.4-.2v-2.5H66.5Zm6.6-4.6V105l2.3.1v-2.3Zm9.1,4.7H79.7a7.84,7.84,0,0,0-.1,2.7h2c.9-.1.4,0,.6-.2Zm0,0H79.7a7.84,7.84,0,0,0-.1,2.7h2c.9-.1.4,0,.6-.2Zm-9.1-4.7V105l2.3.1v-2.3Zm-6.6,4.6-.1,2.6h2.3a1.47,1.47,0,0,0,.4-.2v-2.5H66.5Z"/><path class="cls-2" d="M115.8,71.8a16.77,16.77,0,0,1-5,.1,14.34,14.34,0,0,1-5.4-1.8,7.83,7.83,0,0,1-2-1.6c-.2-.2-.7-.8-.7-1.1l.2-1.9.6.9a10,10,0,0,0,2.6,2,15,15,0,0,0,5.6,1.5,13.39,13.39,0,0,0,5.2-.4.31.31,0,0,0,.2-.1v-.7h-.2a18.44,18.44,0,0,1-8.8-.4,10.89,10.89,0,0,1-4.1-2.2,3,3,0,0,1-1-2.1v-.2a2.2,2.2,0,0,1,.5-1.2c1.1-1.3,3.8-1.9,5.2-1.9a22.88,22.88,0,0,1,3.7.1,18.07,18.07,0,0,1,3.7.9c.2.1.4.1.5.2,0-.3-.1-.6-.1-.9a4.25,4.25,0,0,0-.2-1.1c-.2-1.3-.4-2.5-.6-3.7l-.3-1.2c-.1-.2-.1-.5-.2-.7s-.1-.5-.2-.8-.1-.6-.2-.8l-.3-.9c-.1-.4-.3-.9-.4-1.3l-1.3.9L96.4,63.1c3,6,2.2,11.5.1,19.6L112,92.9l1.6,1a27.59,27.59,0,0,0,.8-2.7c.1-.3.2-.6.3-1L115,89l.3-1.5a10.46,10.46,0,0,1,.4-1.7h0c.2-1.1.4-2.2.5-3.3a.6.6,0,0,1,.1-.4c.1-.5.1-1.1.2-1.6-.1.1-.2.1-.4.2h0a1.42,1.42,0,0,1-.6.2,14,14,0,0,1-6.1.5c-2.2-.3-5.3-1.5-6.8-3.4a2.38,2.38,0,0,1-.6-1.1l.1-1.9.2.2a7.22,7.22,0,0,0,2.9,2.6,14.26,14.26,0,0,0,4.4,1.5,12.92,12.92,0,0,0,3.4.1,7.79,7.79,0,0,0,2.1-.4,12.13,12.13,0,0,0,1.4-.5h0c.1,0,.2-.1.3-.1,0-.3.1-.7.1-1-.1,0-.1.1-.2.1h-.1a14.76,14.76,0,0,1-6.6.6,13.55,13.55,0,0,1-5.8-2.1,1.76,1.76,0,0,1-.5-.4c-.3-.3-1.6-1.4-1.6-1.9l.1-1.9.2.2c1.1,1.8,3.4,2.9,5.2,3.5a14.92,14.92,0,0,0,8.1.3c.4-.1.7-.2,1-.3.1,0,.1,0,.2-.1a3.4,3.4,0,0,1,.1-1c-.1,0-.1,0-.2.1h-.1a13.5,13.5,0,0,1-6.3.4,13.65,13.65,0,0,1-2.9-.7,10.14,10.14,0,0,1-4.4-2.7c-.2-.2-.7-.8-.7-1.1l.2-1.9.2.2a8.64,8.64,0,0,0,3.1,2.6,14.46,14.46,0,0,0,2.2.9,17.62,17.62,0,0,0,6,.7,13.56,13.56,0,0,0,2.9-.6h.1V71.2H117A2.27,2.27,0,0,1,115.8,71.8Zm1.2-5.7c-.1.1-.2.1-.2.2a.35.35,0,0,1-.2.1c-2.4,1.5-8,.8-10.1-1.2a2,2,0,0,1-.7-1.5c.2-2,4.2-2.3,5.6-2.1a12.44,12.44,0,0,1,4.2,1.1,5.58,5.58,0,0,1,.8.5c.1.1.3.2.4.4a2.77,2.77,0,0,0-.1-.9c-.1,0-.2-.1-.3-.1s-.1-.1-.2-.1a13.69,13.69,0,0,0-4.9-1.3c-1.8-.2-6.7.1-6.9,2.6a2.13,2.13,0,0,0,.9,1.8c2.3,2.2,8.3,3.2,11.5,1.9.1,0,.1,0,.2-.1A2.85,2.85,0,0,0,117,66.1Z"/><path class="cls-1" d="M115.8,71.8a16.77,16.77,0,0,1-5,.1,14.34,14.34,0,0,1-5.4-1.8,7.83,7.83,0,0,1-2-1.6c-.2-.2-.7-.8-.7-1.1l.2-1.9.6.9a10,10,0,0,0,2.6,2,15,15,0,0,0,5.6,1.5,13.39,13.39,0,0,0,5.2-.4.31.31,0,0,0,.2-.1v-.7h-.2a18.44,18.44,0,0,1-8.8-.4,10.89,10.89,0,0,1-4.1-2.2,3,3,0,0,1-1-2.1v-.2a2.2,2.2,0,0,1,.5-1.2c1.1-1.3,3.8-1.9,5.2-1.9a22.88,22.88,0,0,1,3.7.1,18.07,18.07,0,0,1,3.7.9c.2.1.4.1.5.2,0-.3-.1-.6-.1-.9a4.25,4.25,0,0,0-.2-1.1c-.2-1.3-.4-2.5-.6-3.7l-.3-1.2c-.1-.2-.1-.5-.2-.7s-.1-.5-.2-.8-.1-.6-.2-.8l-.3-.9c-.1-.4-.3-.9-.4-1.3l-1.3.9L96.4,63.1c3,6,2.2,11.5.1,19.6L112,92.9l1.6,1a27.59,27.59,0,0,0,.8-2.7c.1-.3.2-.6.3-1L115,89l.3-1.5a10.46,10.46,0,0,1,.4-1.7h0c.2-1.1.4-2.2.5-3.3a.6.6,0,0,1,.1-.4c.1-.5.1-1.1.2-1.6-.1.1-.2.1-.4.2h0a1.42,1.42,0,0,1-.6.2,14,14,0,0,1-6.1.5c-2.2-.3-5.3-1.5-6.8-3.4a2.38,2.38,0,0,1-.6-1.1l.1-1.9.2.2a7.22,7.22,0,0,0,2.9,2.6,14.26,14.26,0,0,0,4.4,1.5,12.92,12.92,0,0,0,3.4.1,7.79,7.79,0,0,0,2.1-.4,12.13,12.13,0,0,0,1.4-.5h0c.1,0,.2-.1.3-.1,0-.3.1-.7.1-1-.1,0-.1.1-.2.1h-.1a14.76,14.76,0,0,1-6.6.6,13.55,13.55,0,0,1-5.8-2.1,1.76,1.76,0,0,1-.5-.4c-.3-.3-1.6-1.4-1.6-1.9l.1-1.9.2.2c1.1,1.8,3.4,2.9,5.2,3.5a14.92,14.92,0,0,0,8.1.3c.4-.1.7-.2,1-.3.1,0,.1,0,.2-.1a3.4,3.4,0,0,1,.1-1c-.1,0-.1,0-.2.1h-.1a13.5,13.5,0,0,1-6.3.4,13.65,13.65,0,0,1-2.9-.7,10.14,10.14,0,0,1-4.4-2.7c-.2-.2-.7-.8-.7-1.1l.2-1.9.2.2a8.64,8.64,0,0,0,3.1,2.6,14.46,14.46,0,0,0,2.2.9,17.62,17.62,0,0,0,6,.7,13.56,13.56,0,0,0,2.9-.6h.1V71.2H117A2.27,2.27,0,0,1,115.8,71.8Zm1.2-5.7c-.1.1-.2.1-.2.2a.35.35,0,0,1-.2.1c-2.4,1.5-8,.8-10.1-1.2a2,2,0,0,1-.7-1.5c.2-2,4.2-2.3,5.6-2.1a12.44,12.44,0,0,1,4.2,1.1,5.58,5.58,0,0,1,.8.5c.1.1.3.2.4.4a2.77,2.77,0,0,0-.1-.9c-.1,0-.2-.1-.3-.1s-.1-.1-.2-.1a13.69,13.69,0,0,0-4.9-1.3c-1.8-.2-6.7.1-6.9,2.6a2.13,2.13,0,0,0,.9,1.8c2.3,2.2,8.3,3.2,11.5,1.9.1,0,.1,0,.2-.1A2.85,2.85,0,0,0,117,66.1Z"/><path class="cls-1" d="M49.7,63.1,34.8,52.7l-3.1-2.2c-2,5.8-2.9,13.2-2.8,20.6a5.74,5.74,0,0,1,.7-.4c.2-.1.9-.6,1.8-1.1,2.1-1.3,5.1-3.2,5.3-3.2s10.6.6,11.1.7c-.1.2-9.2,6.1-9.4,6.1s-3.9-.3-7-.6a25,25,0,0,0-2.5-.2A74.56,74.56,0,0,0,32.4,94l3.4-2.2,14.3-9.2C48,74.4,46.6,69.1,49.7,63.1Zm-20,15.1c-.2-.6.1-.7,0-1.2-.2-1-.5-2-.7-3l1,.2c.2.5.5,2.6.8,2.8a1.13,1.13,0,0,1,.5,1.1C31.2,79.2,30,79.2,29.7,78.2Zm15.2-.8a7.1,7.1,0,0,1-1.4,1,10.39,10.39,0,0,1-3.4,1.5,12.3,12.3,0,0,1-5.4,0,11,11,0,0,0-1.6-.3l-1.3-5.3c.9,0,6.8.7,7.1.6S44,71.5,44.8,71l1.3,5.3A13.07,13.07,0,0,1,44.9,77.4Z"/><path class="cls-1" d="M63.6,96c4.1,2.8,13.4,2.7,19.2.8a27,27,0,0,0,18.3-28.4c-.8-7.3-4.5-13.9-9-17.4C88,56.2,94.7,55.2,97,66.6A23.28,23.28,0,0,1,70.8,94.3C66.3,93.6,66.5,92.1,63.6,96Z"/><path class="cls-1" d="M55.9,91c2.1-4.9,1.6-2.7-1.3-7C42.8,66,59.5,44.1,78.3,48.1c2.5.5,4.6,2.3,6.6-1.8-14.5-7-33.2,2.3-37,17.6a28.14,28.14,0,0,0-.9,9.7C47.7,79.6,51.6,88.8,55.9,91Z"/><path class="cls-1" d="M72.3,67.9c4.1-2.7,8,4.1,3.6,6.5A3.72,3.72,0,1,1,72.3,67.9Zm19.3-24L69,66.6c-2.3,2.4-1.9,8,1.4,10.2A6.87,6.87,0,0,0,80.1,74L91.6,43.9Z"/><path class="cls-1" d="M55.5,100.1c3.4-3,6.6-6.6,9.9-9.9l9.3-9.7c.1-.1.1-.2.2-.3s.1-.2.2-.3a8.71,8.71,0,0,1-9.4-6c-1.2,1.5-1.9,4.4-2.7,6.4Z"/><path class="cls-1" d="M118,63.6a9.38,9.38,0,0,0-1.2-.9c-.1,0-.2-.1-.3-.1s-.1-.1-.2-.1c0,.2.1.5.1.7s.3.2.4.4h0c.3.3.8.9.7,1.4a1.31,1.31,0,0,1-.6,1.2c-.1.1-.2.1-.2.2,0,.4.1.8.1,1.2.1,0,.1,0,.2-.1s.5-.2.7-.3a2,2,0,0,0,1.2-1.8A2.43,2.43,0,0,0,118,63.6Zm0,0a9.38,9.38,0,0,0-1.2-.9c-.1,0-.2-.1-.3-.1s-.1-.1-.2-.1c0,.2.1.5.1.7s.3.2.4.4h0c.3.3.8.9.7,1.4a1.31,1.31,0,0,1-.6,1.2c-.1.1-.2.1-.2.2,0,.4.1.8.1,1.2.1,0,.1,0,.2-.1s.5-.2.7-.3a2,2,0,0,0,1.2-1.8A2.43,2.43,0,0,0,118,63.6Zm0,0a9.38,9.38,0,0,0-1.2-.9c-.1,0-.2-.1-.3-.1s-.1-.1-.2-.1c0,.2.1.5.1.7s.3.2.4.4h0c.3.3.8.9.7,1.4a1.31,1.31,0,0,1-.6,1.2c-.1.1-.2.1-.2.2,0,.4.1.8.1,1.2.1,0,.1,0,.2-.1s.5-.2.7-.3a2,2,0,0,0,1.2-1.8A2.43,2.43,0,0,0,118,63.6Zm0,0a9.38,9.38,0,0,0-1.2-.9c-.1,0-.2-.1-.3-.1s-.1-.1-.2-.1c0,.2.1.5.1.7s.3.2.4.4h0c.3.3.8.9.7,1.4a1.31,1.31,0,0,1-.6,1.2c-.1.1-.2.1-.2.2,0,.4.1.8.1,1.2.1,0,.1,0,.2-.1s.5-.2.7-.3a2,2,0,0,0,1.2-1.8A2.43,2.43,0,0,0,118,63.6Zm6.3,1.2A49.3,49.3,0,0,0,120,50.7a54,54,0,0,0-3.4-5.9,17.85,17.85,0,0,0-2-2.6,27.14,27.14,0,0,0-1.9-2.5c1.9-4.4,6.5-9.8,8.6-14.4l-14.8,8.4a20.76,20.76,0,0,1-2.9-1.9,51.14,51.14,0,0,0-16.1-7.3c-2-.5-4.4-.7-6.5-1.3h-.1c-1-.7-3.1-10.2-3.4-11.3-1-3.9-2.1-8-3.1-11.9l-.3.6L73.8,0c-1,3.8-2.1,8-3.1,11.9-.3,1.1-2.4,10.6-3.4,11.3h-.1c-2,.5-4.5.8-6.5,1.3a51.64,51.64,0,0,0-16,7.3,20.76,20.76,0,0,1-2.9,1.9L27,25.3c2.1,4.6,6.7,10,8.6,14.4a27.14,27.14,0,0,0-1.9,2.5,29.4,29.4,0,0,0-2,2.6,41.23,41.23,0,0,0-3.3,5.9A50.43,50.43,0,0,0,24,64.8L0,70.7c3.7,2.2,19.4,3.9,23.7,6.2,1,1.8,1.2,5.2,1.8,7.4a51.54,51.54,0,0,0,5.8,12.6c1.2,1.9,3,3.8,3.8,5.3l-8.6,14.1,14.8-8.2c8.9,5.3,12.5,9.2,26.3,10.9l6,23.4c4.3-13.6,5.1-15.3,7.2-23.4,13.7-1.7,17.4-5.6,26.3-10.9l14.8,8.2-8.6-14.1c.8-1.5,2.6-3.4,3.8-5.3a48.08,48.08,0,0,0,5.8-12.6c.6-2.2.8-5.6,1.8-7.4,4.3-2.3,20-3.9,23.7-6.2ZM29.7,78.2c-.2-.6.1-.7,0-1.2-.2-1-.5-2-.7-3l1,.2c.2.5.5,2.6.8,2.8a1.13,1.13,0,0,1,.5,1.1C31.2,79.2,30,79.2,29.7,78.2ZM120.5,66a2.77,2.77,0,0,1-1.3,1.8,7,7,0,0,1-2,.8H117v.8a.31.31,0,0,0,.2-.1,5.6,5.6,0,0,0,2.8-1.6l.4-.4-.2,1.9c-.1.3-.3.5-.9.9a7.56,7.56,0,0,1-2.2,1.1H117v1.1h.1a.35.35,0,0,0,.2-.1c.5-.2,1-.5,1.4-.7a9.35,9.35,0,0,0,1.2-1l-.2,1.9h0c-.1.4-1,1-1.4,1.2l-1.1.5c-.1,0-.2.1-.3.1s-.1,0-.2.1a3.4,3.4,0,0,1-.1,1c.1,0,.1,0,.2-.1a5.9,5.9,0,0,0,.8-.4,5.38,5.38,0,0,0,1.2-.9l.2-.2.2-.2-.2,1.9a.66.66,0,0,1-.4.5,8.58,8.58,0,0,1-2,1.3h0c-.1,0-.1.1-.2.1,0,.4-.1.7-.1,1.1.1,0,.2-.1.3-.1a4.81,4.81,0,0,0,1.6-1.2l.2-.2-.2,1.9a.66.66,0,0,1-.4.5,4.51,4.51,0,0,1-1.4,1c-.1.1-.2.1-.4.2h0A40.17,40.17,0,0,1,93.6,110a44,44,0,0,1-7.9,2.9h.8v1.6H61.8v-1.6h.6a39.46,39.46,0,0,1-8.1-3A39.28,39.28,0,0,1,35.7,91.6a47.2,47.2,0,0,1-4.4-19.2,25,25,0,0,0-2.5-.2c-1-.1-1.7-.2-1.7-.2.3-.2,1-.7,1.7-1.1a5.74,5.74,0,0,1,.7-.4c.2-.1.9-.6,1.8-1.1a48.83,48.83,0,0,1,3.4-16.9C48.3,19.4,98.3,19,112.9,51.2a44.38,44.38,0,0,1,3.2,10.3c.2.1.4.1.5.2a2,2,0,0,1,.8.4,6.82,6.82,0,0,1,2.6,2.2A3,3,0,0,1,120.5,66Zm-3.7-3.3c-.1,0-.2-.1-.3-.1s-.1-.1-.2-.1c0,.2.1.5.1.7s.3.2.4.4h0c.3.3.8.9.7,1.4a1.31,1.31,0,0,1-.6,1.2c-.1.1-.2.1-.2.2,0,.4.1.8.1,1.2.1,0,.1,0,.2-.1s.5-.2.7-.3a2,2,0,0,0,1.2-1.8,2.84,2.84,0,0,0-.9-1.7A2.94,2.94,0,0,0,116.8,62.7Zm1.2.9a9.38,9.38,0,0,0-1.2-.9c-.1,0-.2-.1-.3-.1s-.1-.1-.2-.1c0,.2.1.5.1.7s.3.2.4.4h0c.3.3.8.9.7,1.4a1.31,1.31,0,0,1-.6,1.2c-.1.1-.2.1-.2.2,0,.4.1.8.1,1.2.1,0,.1,0,.2-.1s.5-.2.7-.3a2,2,0,0,0,1.2-1.8A2.43,2.43,0,0,0,118,63.6Zm0,0a9.38,9.38,0,0,0-1.2-.9c-.1,0-.2-.1-.3-.1s-.1-.1-.2-.1c0,.2.1.5.1.7s.3.2.4.4h0c.3.3.8.9.7,1.4a1.31,1.31,0,0,1-.6,1.2c-.1.1-.2.1-.2.2,0,.4.1.8.1,1.2.1,0,.1,0,.2-.1s.5-.2.7-.3a2,2,0,0,0,1.2-1.8A2.43,2.43,0,0,0,118,63.6Z"/><path class="cls-1" d="M71.9,36.6a2.15,2.15,0,1,1-2.1,2.2,2.2,2.2,0,0,1,2.1-2.2Zm.2,4.7h0c3.4-.1,4.5,2.3,4.9,5l-9.5.2c.2-2.7,1.2-5.1,4.6-5.2Z"/></svg>