<?xml version="1.0" encoding="utf-8"?>
<!-- Generator: Adobe Illustrator 26.1.0, SVG Export Plug-In . SVG Version: 6.00 Build 0)  -->
<svg version="1.1" id="Layer_1" xmlns="http://www.w3.org/2000/svg" xmlns:xlink="http://www.w3.org/1999/xlink" x="0px" y="0px"
	 viewBox="0 0 167.4 100.3" style="enable-background:new 0 0 167.4 100.3;" xml:space="preserve">
<style type="text/css">
	.st0{fill:#FFFFFF;}
	.st1{fill-rule:evenodd;clip-rule:evenodd;fill:#FFFFFF;}
</style>
<g>
	<polygon class="st0" points="11,26 11,6.9 3.7,6.9 3.7,2.8 23.4,2.8 23.4,6.9 16.1,6.9 16.1,26 	"/>
	<path id="_x31_" class="st0" d="M35.9,9.1c3.9,0,5.9,2.3,5.9,6.9v10h-4.9v-9.8c0-1.2-0.2-2-0.6-2.5c-0.4-0.5-1.1-0.8-2-0.8
		c-1.1,0-2,0.3-2.6,1c-0.7,0.7-1,1.6-1,2.8v9.2h-4.9v-24h4.9v9.7c0.6-0.9,1.3-1.5,2.2-2C33.8,9.3,34.8,9.1,35.9,9.1L35.9,9.1z"/>
	<path id="_x32_" class="st0" d="M60.5,18.1H49.6c0.1,1.5,0.5,2.7,1.2,3.4s1.8,1.1,3.2,1.1c0.8,0,1.7-0.1,2.5-0.4
		c0.8-0.3,1.6-0.7,2.3-1.2l1.3,3.3c-0.8,0.6-1.8,1.1-2.9,1.5c-1.2,0.4-2.3,0.5-3.5,0.5c-2.8,0-5-0.8-6.5-2.3
		c-1.6-1.5-2.4-3.6-2.4-6.3c0-1.7,0.3-3.2,1-4.5s1.6-2.3,2.9-3.1C49.9,9.4,51.3,9,52.9,9c2.3,0,4.2,0.8,5.5,2.3s2,3.5,2,6.1
		L60.5,18.1L60.5,18.1z M53.1,12.5c-0.9,0-1.7,0.3-2.3,0.8s-0.9,1.3-1.1,2.4h6.5C56,13.6,55,12.5,53.1,12.5z"/>
	<path class="st0" d="M5.5,30.5H16c2.6,0,4.6,0.6,6,1.9c1.4,1.2,2.1,2.9,2.1,5c0,2.1-0.7,3.8-2.1,5c-1.4,1.2-3.4,1.9-6,1.9h-5.4v9.4
		H5.5V30.5L5.5,30.5z M15.4,40.4c2.6,0,4-1,4-3s-1.3-3-4-3h-4.8v6H15.4L15.4,40.4z"/>
	<path id="_x31__00000087396988105828182060000005530569622511575968_" class="st0" d="M42.6,37.1v16.5h-4.8v-2.4
		c-0.5,0.9-1.2,1.5-2.1,2c-0.8,0.5-1.8,0.7-2.9,0.7c-2.1,0-3.6-0.6-4.6-1.7c-1-1.2-1.5-2.9-1.5-5.2v-9.8h4.9v9.9c0,2,0.9,3,2.6,3
		c1,0,1.8-0.3,2.5-1c0.6-0.7,0.9-1.6,0.9-2.7v-9.1L42.6,37.1L42.6,37.1z"/>
	<path id="_x32__00000091009765525824857230000013876427738792712110_" class="st0" d="M56.2,36.8c0.7,0,1.3,0.1,1.8,0.3v4.5
		c-0.8-0.4-1.6-0.6-2.4-0.6c-1.3,0-2.3,0.4-3,1.1s-1,1.7-1,2.9v8.6h-4.9V41.9c0-1.8-0.1-3.3-0.3-4.7H51l0.3,2.8
		c0.4-1,1.1-1.8,1.9-2.4C54.1,37,55.1,36.8,56.2,36.8z"/>
	<path id="_x33_" class="st0" d="M70,36.7c1.4,0,2.7,0.4,3.8,1.1c1.1,0.7,2,1.8,2.6,3.1c0.6,1.3,0.9,2.8,0.9,4.5s-0.3,3.2-0.9,4.5
		c-0.6,1.3-1.5,2.3-2.6,3s-2.4,1-3.8,1c-1.2,0-2.2-0.2-3.1-0.7c-0.9-0.5-1.6-1.1-2.1-2v9.5h-4.9V41.9c0-1.8-0.1-3.3-0.3-4.7h4.6
		l0.3,2.7c0.4-1,1.1-1.7,2.1-2.3C67.7,37,68.8,36.7,70,36.7L70,36.7z M68.6,50.2c1.2,0,2.1-0.4,2.8-1.2c0.7-0.8,1-2,1-3.5
		s-0.3-2.7-1-3.6s-1.6-1.3-2.8-1.3s-2.2,0.4-2.8,1.3c-0.7,0.8-1,2-1,3.6s0.3,2.8,1,3.6C66.5,49.7,67.4,50.2,68.6,50.2L68.6,50.2z"/>
	<path id="_x34_" class="st0" d="M88.3,53.9c-1.8,0-3.3-0.3-4.6-1s-2.3-1.7-3-3s-1.1-2.8-1.1-4.6c0-1.7,0.4-3.3,1.1-4.6
		c0.7-1.3,1.7-2.3,3-3s2.8-1,4.6-1c1.7,0,3.3,0.3,4.6,1s2.3,1.7,3,3s1.1,2.8,1.1,4.6c0,1.7-0.4,3.3-1.1,4.6c-0.7,1.3-1.7,2.3-3,3
		C91.6,53.6,90.1,53.9,88.3,53.9z M88.3,50.2c1.2,0,2.1-0.4,2.8-1.2c0.6-0.8,1-2,1-3.6s-0.3-2.8-1-3.6c-0.6-0.8-1.6-1.2-2.8-1.2
		s-2.2,0.4-2.8,1.2c-0.7,0.8-1,2-1,3.6C84.5,48.5,85.8,50.2,88.3,50.2L88.3,50.2z"/>
	<path id="_x35_" class="st0" d="M106.4,53.9c-3.1,0-5.6-0.7-7.4-2l1.3-3.4c0.9,0.6,1.8,1.1,2.9,1.4s2.1,0.5,3.3,0.5
		c0.8,0,1.5-0.1,2-0.4s0.7-0.6,0.7-1.1c0-0.4-0.2-0.7-0.5-1c-0.3-0.2-0.9-0.4-1.7-0.6l-2.7-0.6c-1.6-0.3-2.8-0.9-3.5-1.7
		c-0.7-0.8-1.1-1.8-1.1-3c0-1,0.3-1.9,0.9-2.7c0.6-0.8,1.4-1.4,2.5-1.9c1.1-0.4,2.3-0.7,3.7-0.7c1.2,0,2.3,0.2,3.5,0.5
		c1.1,0.4,2.1,0.9,3,1.5l-1.4,3.3c-0.8-0.6-1.7-1-2.6-1.3s-1.7-0.5-2.6-0.5c-0.8,0-1.4,0.1-1.9,0.4s-0.7,0.7-0.7,1.2
		c0,0.4,0.1,0.7,0.4,0.9c0.3,0.2,0.8,0.4,1.4,0.6l2.8,0.6c1.7,0.4,2.9,1,3.7,1.8c0.8,0.8,1.1,1.8,1.1,3.1c0,1.6-0.6,2.8-1.9,3.7
		C110.3,53.4,108.6,53.9,106.4,53.9L106.4,53.9z"/>
	<path id="_x36_" class="st0" d="M131.3,45.8h-10.9c0.1,1.5,0.5,2.7,1.2,3.4c0.7,0.7,1.8,1.1,3.2,1.1c0.8,0,1.7-0.1,2.5-0.4
		c0.8-0.3,1.6-0.7,2.3-1.2l1.3,3.3c-0.8,0.6-1.8,1.1-2.9,1.5c-1.2,0.4-2.3,0.5-3.5,0.5c-2.8,0-5-0.8-6.5-2.3
		c-1.6-1.5-2.4-3.6-2.4-6.3c0-1.7,0.3-3.2,1-4.5s1.6-2.3,2.9-3.1c1.2-0.7,2.6-1.1,4.2-1.1c2.3,0,4.2,0.8,5.5,2.3
		c1.3,1.5,2,3.5,2,6.1L131.3,45.8L131.3,45.8z M123.9,40.2c-0.9,0-1.7,0.3-2.3,0.8c-0.6,0.5-0.9,1.3-1.1,2.4h6.5
		C126.8,41.2,125.7,40.2,123.9,40.2z"/>
	<path class="st0" d="M13.5,84.7c-2.3,0-4.4-0.5-6.1-1.5c-1.7-1-3.1-2.4-4-4.2C2.5,77.2,2,75.1,2,72.7s0.5-4.4,1.4-6.2
		c0.9-1.8,2.3-3.2,4-4.1c1.7-1,3.8-1.5,6.1-1.5c1.5,0,3,0.2,4.4,0.7s2.5,1.1,3.4,2l-1.6,3.6c-1-0.8-2.1-1.4-3-1.7
		c-1-0.4-2-0.5-3.1-0.5c-2.1,0-3.7,0.7-4.8,2s-1.7,3.3-1.7,5.8c0,2.6,0.6,4.5,1.7,5.8c1.1,1.3,2.7,2,4.8,2c1.1,0,2.1-0.2,3.1-0.5
		c1-0.4,2-0.9,3-1.7l1.6,3.6c-0.9,0.8-2,1.5-3.4,2C16.6,84.5,15.1,84.7,13.5,84.7z"/>
	<path id="_x31__00000154411901286242773590000015217140439415627450_" class="st0" d="M39.1,76.5H28.2c0.1,1.5,0.5,2.7,1.2,3.4
		c0.7,0.7,1.8,1.1,3.2,1.1c0.8,0,1.7-0.1,2.5-0.4s1.6-0.7,2.3-1.2l1.3,3.3c-0.8,0.6-1.8,1.1-2.9,1.5c-1.2,0.4-2.3,0.5-3.5,0.5
		c-2.8,0-5-0.8-6.5-2.3c-1.6-1.5-2.4-3.6-2.4-6.3c0-1.7,0.3-3.2,1-4.5s1.6-2.3,2.9-3.1c1.2-0.7,2.6-1.1,4.2-1.1
		c2.3,0,4.2,0.8,5.5,2.3s2,3.5,2,6.1L39.1,76.5L39.1,76.5z M31.7,70.9c-0.9,0-1.7,0.3-2.3,0.8s-0.9,1.3-1.1,2.4h6.5
		C34.6,72,33.6,70.9,31.7,70.9z"/>
	<path id="_x32__00000134944561255536330440000002603820326831460534_" class="st0" d="M52.4,67.5c3.9,0,5.9,2.3,5.9,6.9v10h-4.9
		v-9.8c0-1.2-0.2-2-0.6-2.5c-0.4-0.5-1.1-0.8-2-0.8c-1.1,0-2,0.3-2.6,1c-0.7,0.7-1,1.6-1,2.8v9.2h-4.9V72.6c0-1.8-0.1-3.3-0.3-4.7
		h4.6l0.3,2.6c0.6-1,1.4-1.7,2.3-2.2C50.1,67.7,51.2,67.5,52.4,67.5z"/>
	<path id="_x33__00000134243492066973497590000009946482644534459013_" class="st0" d="M68.4,71.6V78c0,0.9,0.2,1.6,0.7,2
		s1.1,0.6,1.9,0.6c0.5,0,1-0.1,1.6-0.2v3.8c-0.8,0.3-1.7,0.5-2.8,0.5c-2,0-3.6-0.6-4.7-1.7c-1.1-1.1-1.6-2.8-1.6-4.8v-6.5h-3.1V68
		h3.1v-3.9l4.9-1.6V68h4.2v3.7L68.4,71.6L68.4,71.6z"/>
	<path id="_x34__00000016073602052079691230000000699096816668131226_" class="st0" d="M89.9,76.5H79c0.1,1.5,0.5,2.7,1.2,3.4
		c0.7,0.7,1.8,1.1,3.2,1.1c0.8,0,1.7-0.1,2.5-0.4s1.6-0.7,2.3-1.2l1.3,3.3c-0.8,0.6-1.8,1.1-2.9,1.5c-1.2,0.4-2.3,0.5-3.5,0.5
		c-2.8,0-5-0.8-6.5-2.3c-1.6-1.5-2.4-3.6-2.4-6.3c0-1.7,0.3-3.2,1-4.5s1.6-2.3,2.9-3.1c1.2-0.7,2.6-1.1,4.2-1.1
		c2.3,0,4.2,0.8,5.5,2.3s2,3.5,2,6.1L89.9,76.5L89.9,76.5z M82.5,70.9c-0.9,0-1.7,0.3-2.3,0.8s-0.9,1.3-1.1,2.4h6.5
		C85.4,72,84.3,70.9,82.5,70.9z"/>
	<path id="_x35__00000165202715191108265700000015204746705273526701_" class="st0" d="M102.6,67.5c0.7,0,1.3,0.1,1.8,0.3v4.5
		c-0.8-0.4-1.6-0.6-2.4-0.6c-1.3,0-2.3,0.4-3,1.1s-1,1.7-1,2.9v8.6h-4.9V72.6c0-1.8-0.1-3.3-0.3-4.7h4.6l0.3,2.8
		c0.4-1,1.1-1.8,1.9-2.4S101.5,67.5,102.6,67.5z"/>
	<polygon class="st0" points="3.2,98.5 3.2,94.4 5.9,94.4 5.9,95.1 4,95.1 4,96 5.8,96 5.8,96.7 4,96.7 4,98.5 	"/>
	<path id="_x31__00000143597065875213204450000011001304728312321436_" class="st0" d="M9.6,98.5l-0.4-0.9H7.3l-0.4,0.9H6l1.9-4.1
		h0.7l1.9,4.1H9.6z M7.6,96.9h1.3l-0.7-1.5L7.6,96.9z"/>
	<polygon id="_x32__00000107556861664317769340000011462347693877386644_" class="st0" points="14.6,94.4 15.3,94.4 15.3,98.5 
		14.5,98.5 14.5,96.2 13.6,98.5 13,98.5 12,96.3 12,98.5 11.3,98.5 11.3,94.4 12,94.4 13.3,97.4 	"/>
	<polygon id="_x33__00000181049555729162498260000016960182413297407638_" class="st0" points="16.5,98.5 16.5,94.4 17.4,94.4 
		17.4,98.5 	"/>
	<polygon id="_x34__00000037666891565922501740000008977316521015187337_" class="st0" points="18.6,98.5 18.6,94.4 19.5,94.4 
		19.5,97.7 21.3,97.7 21.3,98.5 	"/>
	<polygon id="_x35__00000143605712419780377200000003931731933006110124_" class="st0" points="25.1,94.4 23.4,96.9 23.4,98.5 
		22.5,98.5 22.5,96.9 20.8,94.4 21.8,94.4 22.9,96.1 24,94.4 	"/>
	<polygon id="_x36__00000008124316855506652150000014527016653608693687_" class="st0" points="36.9,98.5 36.9,94.4 39.6,94.4 
		39.6,95.1 37.7,95.1 37.7,96 39.5,96 39.5,96.7 37.7,96.7 37.7,98.5 	"/>
	<polygon id="_x37_" class="st0" points="40.5,98.5 40.5,94.4 41.4,94.4 41.4,98.5 	"/>
	<polygon id="_x38_" class="st0" points="45.3,94.4 46.2,94.4 46.2,98.5 45.5,98.5 43.5,95.9 43.5,98.5 42.6,98.5 42.6,94.4 
		43.3,94.4 45.3,97 	"/>
	<path id="_x39_" class="st0" d="M50.5,98.5l-0.4-0.9h-1.9l-0.4,0.9h-0.9l1.9-4.1h0.7l1.9,4.1H50.5z M48.5,96.9h1.3l-0.7-1.5
		L48.5,96.9z"/>
	<polygon id="_x31_0" class="st0" points="54.8,94.4 55.6,94.4 55.6,98.5 55,98.5 52.9,95.9 52.9,98.5 52.1,98.5 52.1,94.4 
		52.7,94.4 54.8,97 	"/>
	<path id="_x31_1" class="st0" d="M58.7,98.5c-0.4,0-0.8-0.1-1.1-0.3c-0.3-0.2-0.5-0.4-0.7-0.7c-0.2-0.3-0.2-0.7-0.2-1.1
		s0.1-0.8,0.2-1.1c0.2-0.3,0.4-0.6,0.7-0.7c0.3-0.2,0.7-0.3,1.1-0.3c0.3,0,0.5,0,0.8,0.1c0.2,0.1,0.4,0.2,0.6,0.3l-0.3,0.6
		c-0.2-0.1-0.4-0.2-0.5-0.3c-0.2-0.1-0.4-0.1-0.5-0.1c-0.4,0-0.7,0.1-0.8,0.4c-0.2,0.2-0.3,0.6-0.3,1c0,0.5,0.1,0.8,0.3,1
		s0.5,0.4,0.8,0.4c0.2,0,0.4,0,0.5-0.1c0.2-0.1,0.4-0.2,0.5-0.3l0.3,0.6c-0.2,0.1-0.4,0.3-0.6,0.3C59.3,98.5,59,98.5,58.7,98.5z"/>
	<polygon id="_x31_2" class="st0" points="61.1,98.5 61.1,94.4 63.9,94.4 63.9,95.1 62,95.1 62,96 63.8,96 63.8,96.7 62,96.7 
		62,97.8 63.9,97.8 63.9,98.5 	"/>
	<polygon id="_x31_3" class="st0" points="76.2,98.5 76.2,94.4 79,94.4 79,95.1 77.1,95.1 77.1,96 78.9,96 78.9,96.7 77.1,96.7 
		77.1,97.8 79,97.8 79,98.5 	"/>
	<path id="_x31_4" class="st0" d="M80,94.4h1.6c0.4,0,0.8,0.1,1.2,0.2c0.3,0.2,0.6,0.4,0.7,0.7c0.2,0.3,0.3,0.7,0.3,1.1
		s-0.1,0.8-0.3,1.1c-0.2,0.3-0.4,0.5-0.7,0.7s-0.7,0.2-1.2,0.2H80V94.4z M81.6,97.7c0.9,0,1.3-0.4,1.3-1.3s-0.4-1.3-1.3-1.3H81v2.6
		L81.6,97.7L81.6,97.7z"/>
	<path id="_x31_5" class="st0" d="M86.6,98.5c-0.6,0-1-0.1-1.3-0.4s-0.4-0.7-0.4-1.3v-2.4h0.9v2.4c0,0.3,0.1,0.6,0.2,0.7
		s0.4,0.3,0.7,0.3s0.5-0.1,0.7-0.3s0.2-0.4,0.2-0.7v-2.4h0.9v2.4c0,0.6-0.2,1-0.5,1.3C87.6,98.4,87.1,98.5,86.6,98.5z"/>
	<path id="_x31_6" class="st0" d="M91.4,98.5c-0.4,0-0.8-0.1-1.1-0.3c-0.3-0.2-0.5-0.4-0.7-0.7c-0.2-0.3-0.2-0.7-0.2-1.1
		s0.1-0.8,0.2-1.1c0.2-0.3,0.4-0.6,0.7-0.7c0.3-0.2,0.7-0.3,1.1-0.3c0.3,0,0.5,0,0.8,0.1c0.2,0.1,0.4,0.2,0.6,0.3l-0.3,0.6
		c-0.2-0.1-0.4-0.2-0.5-0.3c-0.2-0.1-0.4-0.1-0.5-0.1c-0.4,0-0.7,0.1-0.8,0.4c-0.2,0.2-0.3,0.6-0.3,1c0,0.5,0.1,0.8,0.3,1
		s0.5,0.4,0.8,0.4c0.2,0,0.4,0,0.5-0.1c0.2-0.1,0.4-0.2,0.5-0.3l0.3,0.6c-0.2,0.1-0.4,0.3-0.6,0.3C91.9,98.5,91.7,98.5,91.4,98.5z"
		/>
	<path id="_x31_7" class="st0" d="M96.8,98.5l-0.4-0.9h-1.9l-0.4,0.9h-0.9l1.9-4.1h0.7l1.9,4.1H96.8L96.8,98.5z M94.8,96.9h1.3
		l-0.7-1.5L94.8,96.9L94.8,96.9z"/>
	<polygon id="_x31_8" class="st0" points="98.9,98.5 98.9,95.1 97.6,95.1 97.6,94.4 101.1,94.4 101.1,95.1 99.8,95.1 99.8,98.5 	"/>
	<polygon id="_x31_9" class="st0" points="101.9,98.5 101.9,94.4 102.8,94.4 102.8,98.5 	"/>
	<path id="_x32_0" class="st0" d="M105.8,98.5c-0.4,0-0.8-0.1-1.1-0.3c-0.3-0.2-0.5-0.4-0.7-0.7c-0.2-0.3-0.2-0.7-0.2-1.1
		s0.1-0.8,0.2-1.1c0.2-0.3,0.4-0.6,0.7-0.7c0.3-0.2,0.7-0.3,1.1-0.3s0.8,0.1,1.1,0.3c0.3,0.2,0.5,0.4,0.7,0.7
		c0.2,0.3,0.2,0.7,0.2,1.1s-0.1,0.8-0.2,1.1c-0.2,0.3-0.4,0.6-0.7,0.7C106.6,98.4,106.3,98.5,105.8,98.5z M105.8,97.8
		c0.3,0,0.6-0.1,0.8-0.4c0.2-0.2,0.3-0.6,0.3-1c0-0.5-0.1-0.8-0.3-1c-0.2-0.2-0.5-0.4-0.8-0.4s-0.6,0.1-0.8,0.4
		c-0.2,0.2-0.3,0.6-0.3,1c0,0.5,0.1,0.8,0.3,1C105.2,97.7,105.5,97.8,105.8,97.8z"/>
	<polygon id="_x32_1" class="st0" points="111.6,94.4 112.4,94.4 112.4,98.5 111.8,98.5 109.7,95.9 109.7,98.5 108.9,98.5 
		108.9,94.4 109.6,94.4 111.6,97 	"/>
	<path id="_x32_2" class="st0" d="M128.4,98.5h-0.9l-0.5-1.4c0-0.1-0.1-0.2-0.2-0.2s-0.2-0.1-0.3-0.1h-0.6v1.7H125v-4.1h1.8
		c0.5,0,0.8,0.1,1.1,0.3c0.3,0.2,0.4,0.5,0.4,0.9c0,0.3-0.1,0.5-0.2,0.7c-0.1,0.2-0.4,0.3-0.6,0.4c0.2,0,0.4,0.2,0.5,0.5L128.4,98.5
		L128.4,98.5z M126.6,96.1c0.3,0,0.4,0,0.6-0.1c0.1-0.1,0.2-0.2,0.2-0.4c0-0.2-0.1-0.3-0.2-0.4s-0.3-0.1-0.6-0.1h-0.8v1.1
		L126.6,96.1L126.6,96.1z"/>
	<polygon id="_x32_3" class="st0" points="129.4,98.5 129.4,94.4 132.2,94.4 132.2,95.1 130.3,95.1 130.3,96 132.1,96 132.1,96.7 
		130.3,96.7 130.3,97.8 132.2,97.8 132.2,98.5 	"/>
	<path id="_x32_4" class="st0" d="M136.3,98.5l-0.4-0.9H134l-0.4,0.9h-0.9l1.9-4.1h0.7l1.9,4.1H136.3L136.3,98.5z M134.2,96.9h1.3
		l-0.7-1.5L134.2,96.9L134.2,96.9z"/>
	<polygon id="_x32_5" class="st0" points="137.9,98.5 137.9,94.4 138.8,94.4 138.8,97.7 140.6,97.7 140.6,98.5 	"/>
	<polygon id="_x32_6" class="st0" points="143.1,98.5 143.1,94.4 145.9,94.4 145.9,95.1 144,95.1 144,96 145.8,96 145.8,96.7 
		144,96.7 144,97.8 145.9,97.8 145.9,98.5 	"/>
	<path id="_x32_7" class="st0" d="M148.3,98.5c-0.3,0-0.6,0-0.9-0.1s-0.5-0.2-0.7-0.3l0.3-0.6c0.4,0.3,0.8,0.4,1.3,0.4
		c0.3,0,0.5,0,0.6-0.1s0.2-0.2,0.2-0.3c0-0.1-0.1-0.2-0.2-0.3c-0.1-0.1-0.4-0.1-0.7-0.2c-0.4-0.1-0.6-0.2-0.9-0.3
		c-0.2-0.1-0.4-0.2-0.5-0.4c-0.1-0.2-0.1-0.3-0.1-0.6c0-0.2,0.1-0.5,0.2-0.7s0.3-0.3,0.6-0.5c0.2-0.1,0.5-0.2,0.9-0.2
		c0.3,0,0.6,0,0.8,0.1c0.3,0.1,0.5,0.2,0.6,0.3l-0.3,0.6c-0.4-0.3-0.8-0.4-1.2-0.4c-0.2,0-0.4,0-0.6,0.1c-0.1,0.1-0.2,0.2-0.2,0.4
		c0,0.1,0,0.2,0.1,0.2c0.1,0.1,0.1,0.1,0.3,0.2s0.3,0.1,0.5,0.1c0.5,0.1,0.9,0.3,1.1,0.4c0.2,0.2,0.3,0.4,0.3,0.8s-0.1,0.7-0.4,0.9
		C149.2,98.4,148.8,98.5,148.3,98.5L148.3,98.5z"/>
	<polygon id="_x32_8" class="st0" points="151.8,98.5 151.8,95.1 150.6,95.1 150.6,94.4 154,94.4 154,95.1 152.8,95.1 152.8,98.5 	
		"/>
	<path id="_x32_9" class="st0" d="M157.5,98.5l-0.4-0.9h-1.9l-0.4,0.9h-0.9l1.9-4.1h0.7l1.9,4.1H157.5L157.5,98.5z M155.5,96.9h1.3
		l-0.7-1.5L155.5,96.9L155.5,96.9z"/>
	<polygon id="_x33_0" class="st0" points="159.5,98.5 159.5,95.1 158.2,95.1 158.2,94.4 161.7,94.4 161.7,95.1 160.4,95.1 
		160.4,98.5 	"/>
	<polygon id="_x33_1" class="st0" points="162.5,98.5 162.5,94.4 165.4,94.4 165.4,95.1 163.4,95.1 163.4,96 165.2,96 165.2,96.7 
		163.4,96.7 163.4,97.8 165.4,97.8 165.4,98.5 	"/>
	<circle class="st1" cx="30" cy="96.4" r="1.1"/>
	<circle class="st1" cx="70" cy="96.4" r="1.1"/>
	<circle class="st1" cx="118.4" cy="96.4" r="1.1"/>
</g>
</svg>
