<?xml version="1.0" encoding="utf-8"?>
<!-- Generator: Adobe Illustrator 26.1.0, SVG Export Plug-In . SVG Version: 6.00 Build 0)  -->
<svg version="1.1" id="Layer_1" xmlns="http://www.w3.org/2000/svg" xmlns:xlink="http://www.w3.org/1999/xlink" x="0px" y="0px"
	 viewBox="0 0 333.1 319.4" style="enable-background:new 0 0 333.1 319.4;" xml:space="preserve">
<style type="text/css">
	.st0{fill-rule:evenodd;clip-rule:evenodd;fill:#99E4EB;}
	.st1{fill-rule:evenodd;clip-rule:evenodd;fill:#F2FEFF;}
	.st2{fill-rule:evenodd;clip-rule:evenodd;fill:#45697A;}
	.st3{fill-rule:evenodd;clip-rule:evenodd;fill:#FFFFFF;}
</style>
<g id="Layer_x0020_1">
	<circle class="st0" cx="170.9" cy="160.7" r="102.9"/>
	<circle class="st1" cx="166.6" cy="160.7" r="67.7"/>
	<path class="st2" d="M121.9,66.1c27.2-6.4,63.4-7.5,90.6,1.7l-22.1,36.7l-5.9,3.2c-13.3-6.8-25.5-4.9-43.6-0.2L121.9,66.1
		L121.9,66.1z"/>
	<path class="st2" d="M118.6,252.3c27.4,9.6,69.4,10.7,96.6,1.5l-28-39.9c-13.3,6.8-25.5,4.9-43.6,0.2L118.6,252.3L118.6,252.3z"/>
	<path class="st2" d="M254.3,210.4c9.6-27.4,10.7-69.4,1.5-96.6l-39.9,28c6.8,13.3,4.9,25.5,0.2,43.6L254.3,210.4L254.3,210.4z"/>
	<path class="st2" d="M254.3,210.4c9.6-27.4,10.7-69.4,1.5-96.6l-39.9,28c6.8,13.3,4.9,25.5,0.2,43.6L254.3,210.4L254.3,210.4z"/>
	<path class="st2" d="M73.7,210.4c-9.6-27.4-10.7-69.4-1.5-96.6l39.9,28c-6.8,13.3-3.7,25.1,0.9,43.2L73.7,210.4z"/>
	<path class="st2" d="M151.1,53.2c-4.5,1.2-10,1.8-14.4,2.8c-12.9,3.1-25.1,9-35.8,16.2c-2.3,1.5-3.7,3-6.5,4.3L61.6,57.8
		C66.2,68,76.5,80,80.7,89.8c-1.8,1.9-2.5,3.4-4.3,5.6c-1.7,2.1-2.8,3.4-4.4,5.8c-2.7,4-5.1,8.2-7.4,13.1c-5,10.4-7.4,19.1-9.5,31.3
		l-53.4,13c8.2,5,43.1,8.7,52.7,13.8c2.2,4,2.7,11.6,4,16.4c2.4,8.8,8,20.4,13,28c2.8,4.2,6.6,8.4,8.5,11.7l-19.2,31.4l32.9-18.2
		c19.7,11.8,27.9,20.5,58.5,24.3l13.4,51.9c9.6-30.2,11.3-34.1,15.9-51.9c30.6-3.8,38.8-12.5,58.5-24.3l32.9,18.2l-19.2-31.4
		c1.9-3.4,5.7-7.5,8.5-11.7c5-7.6,10.6-19.1,13-28c1.3-4.8,1.8-12.4,4-16.4c9.6-5.1,44.5-8.8,52.7-13.8l-53.4-13
		c-2.1-12.2-4.6-20.9-9.5-31.3c-2.4-4.9-4.8-9.1-7.4-13.1c-1.6-2.4-2.7-3.8-4.4-5.8c-1.8-2.2-2.5-3.7-4.3-5.6
		c4.2-9.9,14.5-21.8,19.1-32l-32.9,18.7c-2.8-1.3-4.2-2.8-6.5-4.3C221.4,65,209.2,59.1,196.4,56c-4.3-1-9.8-1.6-14.4-2.8
		c-0.1,0-0.2-0.1-0.2-0.1c-2.3-1.6-7-22.7-7.6-25.2c-2.3-8.8-4.7-17.9-6.9-26.4c-0.3,0.4-0.5,0.8-0.7,1.4c-0.2-0.5-0.5-1-0.7-1.4
		c-2.2,8.5-4.6,17.7-6.9,26.4c-0.7,2.5-5.4,23.6-7.6,25.2C151.3,53.1,151.2,53.1,151.1,53.2L151.1,53.2z M71.3,158.7
		c1.3-128,189.1-128,190.5,0C263.1,288.8,70,288.8,71.3,158.7L71.3,158.7z"/>
	<path class="st2" d="M143,215c9.1,6.2,29.7,6,42.6,1.8c26.7-8.8,43.6-35.3,40.6-63.2c-1.7-16.2-9.9-30.8-19.9-38.7
		c-9.1,11.6,5.8,9.3,10.9,34.6c7,34.9-22.5,66.9-58.3,61.7C149,209.6,149.5,206.4,143,215L143,215z"/>
	<path class="st2" d="M125.9,203.9c4.6-10.8,3.6-5.9-2.8-15.6c-26.3-39.9,10.8-88.7,52.6-79.8c5.6,1.2,10.2,5,14.8-4
		c-32.2-15.6-73.8,5.1-82.3,39.2c-1.7,6.8-2.7,13.8-1.9,21.5C107.7,178.5,116.4,198.9,125.9,203.9L125.9,203.9z"/>
	<path class="st2" d="M162.4,152.4c9.2-6,17.7,9.1,8.1,14.4C161.3,171.9,152,159.2,162.4,152.4z M205.2,99l-50,50.6
		c-5.2,5.4-4.3,17.9,3,22.6c7.2,4.7,17.5,1.7,21.5-6.2L205.2,99z"/>
	<path class="st2" d="M125,224.1c7.5-6.7,14.7-14.7,21.9-21.9l20.6-21.5c0.1-0.2,0.3-0.5,0.4-0.7c0.1-0.2,0.3-0.5,0.4-0.7
		c-9.8,0.9-17.4-4.1-20.8-13.3c-2.6,3.3-4.2,9.8-6.1,14.3L125,224.1L125,224.1z"/>
	<path class="st1" d="M176.2,82.7L176.2,82.7c17.2-0.3,13.8,20.3,9.3,19.6c-12.6-1.9-25.7-1.7-37.9,1.7l-0.7,0.1
		c-2.8,0.4-3.5-3.9-3.6-7.4c-0.1-8.5,1.3-17.5,13.3-17.7l0,0c6.3-0.1,9.8,2.3,11.7,5.9C170.2,83.5,172.8,82.7,176.2,82.7z M157,63.8
		c4-0.1,7.2,3.1,7.3,7c0.1,4-3.1,7.2-7,7.3c-4,0.1-7.2-3.1-7.3-7C149.9,67.2,153,63.9,157,63.8L157,63.8z M174.8,67.6
		c4-0.1,7.3,3.1,7.4,7.1c0.1,4-3.1,7.3-7.1,7.3c-4,0.1-7.3-3.1-7.4-7.1C167.6,71,170.8,67.7,174.8,67.6z"/>
	<path class="st2" d="M161.6,83c2.7-0.1,4.9,2.1,4.9,4.7c0.1,2.7-2.1,4.9-4.7,4.9c-2.7,0.1-4.9-2.1-4.9-4.7
		C156.8,85.2,158.9,83,161.6,83z M161.9,93.4L161.9,93.4c7.7-0.1,10.1,5.1,10.8,11.1l-21.2,0.4C152,98.9,154.3,93.6,161.9,93.4z"/>
	<path class="st1" d="M178.7,240.4l5.6,0l0,5.5c-0.5,0.6,0.6,0.4-1.4,0.5l-4.4-0.1C178.3,244.6,178.2,241.5,178.7,240.4z
		 M149.5,240.4l5.6,0l0,5.6c-0.3,0.2-0.1,0.2-0.8,0.3l-5-0.1L149.5,240.4z M164.2,230.1l5.1-0.1l-0.1,5.1l-5-0.2L164.2,230.1
		L164.2,230.1z M163.3,240.5l7.1,0l0,10.3l20.9,0l0-15.1c-3-0.2-6.2-0.1-9.2,0c-3.9,0-4.1-1.1-6.1-2.8l-9.1-8.6l-9.4,8.7
		c-1.9,2.1-2.4,2.8-6.5,2.8c-2.3,0-6.6-0.2-8.7,0.2l0,15l20.9,0L163.3,240.5L163.3,240.5z"/>
	<path class="st1" d="M152.7,220.6l13,0.1l-12.6,12.8l-11.6,0.1l5.7-7.1C148.5,225,150.9,220.6,152.7,220.6L152.7,220.6z"/>
	<path class="st1" d="M181.5,220.6l-13,0.1l12.6,12.8l11.6,0.1l-5.7-7.1C185.7,225,183.3,220.6,181.5,220.6L181.5,220.6z"/>
	<rect x="139.1" y="253" class="st0" width="55.3" height="3.6"/>
	<path class="st1" d="M245,182.6c5.1,0.6,8.6,0.6,13.5-1c1.9-0.6,4.1-1.8,5.5-3.3c0.3-0.3,0.7-0.6,0.8-1.1l0.3-4.2
		c-0.2,0.1-0.2,0.2-0.4,0.4c-1.8,2.1-4.8,3.5-7.2,4.2c-2.1,0.6-2.6,0.6-4.7,0.9c-2.5,0.3-5,0-7.5-0.3c-3.5-0.4-7.2-1.8-9.8-3.2
		c-2.4-1.3-4.9-3.2-6.5-5.8c-0.1-0.2-0.2-0.4-0.3-0.6l-0.3,4.2c0,0.6,1.1,1.9,1.4,2.4C233.3,179.3,240.1,182,245,182.6L245,182.6z"
		/>
	<path class="st1" d="M247.9,161.3c4.3,0.5,7.1,0.5,11.2-0.2c2.7-0.5,5.6-1.6,7.7-3.2c1.2-0.9,1.7-1.4,1.9-2.1l0.3-4.1l-0.8,0.8
		c-4.3,4.2-12.8,5.2-18.3,4.6c-4.7-0.5-8.5-1.3-12.4-3.4c-2.1-1.1-4.3-2.5-5.9-4.4l-1.4-2l-0.3,4.2c0,0.6,1.1,1.9,1.5,2.4
		c1.4,1.5,2.7,2.5,4.4,3.5C238.9,159.2,243.5,160.8,247.9,161.3L247.9,161.3z"/>
	<path class="st1" d="M247.2,168.3c5.3,0.6,9,0.6,14.1-1c0.4-0.1,0.8-0.3,1.3-0.5l2.4-1.2c0.7-0.4,2.9-1.9,3-2.7c0,0,0,0,0-0.1
		l0.3-4.2c-0.1,0-1.1,1.3-2.6,2.2c-1,0.6-2.1,1.2-3.2,1.6c-2.6,0.9-4.5,1.4-7.4,1.6c-4.3,0.3-9.3-0.2-13.4-1.5
		c-1.8-0.6-3.3-1.2-4.9-2c-2.5-1.3-5.2-3.2-6.9-5.8c-0.1-0.2-0.2-0.4-0.4-0.6l-0.3,4.2c0,0.6,1.1,1.9,1.5,2.4c2.5,2.8,6.6,4.9,9.8,6
		C242.7,167.4,244.8,168,247.2,168.3L247.2,168.3z"/>
	<path class="st1" d="M246.2,175.2c5.6,0.6,9.4,0.6,14.7-1.2c0.3-0.1,0.4-0.1,0.7-0.2c1.7-0.8,3.1-1.4,4.5-2.8
		c0.3-0.3,0.8-0.6,0.9-1.1l0.3-4.2c-0.2,0.1-0.2,0.2-0.4,0.4c-0.1,0.2-0.3,0.3-0.4,0.4c-0.8,0.8-1.9,1.6-2.8,2
		c-1.7,0.9-2.5,1.2-4.4,1.7c-5.4,1.5-12.5,1.2-18.1-0.6c-4-1.3-9.1-3.7-11.6-7.8c-0.1-0.2-0.2-0.4-0.3-0.6l-0.3,4.2
		c0,1.1,2.7,3.7,3.5,4.3c0.3,0.3,0.7,0.5,1.1,0.8C236.8,172.9,242,174.7,246.2,175.2L246.2,175.2z"/>
	<path class="st1" d="M230.6,143.2l0,0.5c-0.2,1.9,1.3,3.8,2.3,4.7c2.7,2.6,5.8,3.9,9.2,5c6.6,2.1,18.1,3,24.5-1
		c1.1-0.7,2.8-2.2,3-4.1c0.1-1.5-0.1-2.1-0.7-3.3c-1.1-2-4-3.9-5.9-4.9c-3-1.6-7.6-3-11.1-3.4c-3.7-0.4-4.4-0.5-8.3-0.3
		c-3.2,0.1-9.3,1.4-11.7,4.3C231.4,141.3,230.7,142.1,230.6,143.2L230.6,143.2z M233.9,143.4c0.5-5.5,11.4-6.3,15.4-5.8
		c4.1,0.5,7.6,1,11.4,3c1.3,0.7,2.4,1.4,3.4,2.4c0.9,0.8,2.1,2.4,2,3.8c-0.2,2.1-1.1,3-2.6,4c-6.5,4.1-22,2.3-27.6-3.2
		C235,146.7,233.8,145.1,233.9,143.4L233.9,143.4z"/>
	<path class="st0" d="M236.9,143.2c0.4-4.5,9.3-5.1,12.5-4.8c3.4,0.4,6.2,0.8,9.3,2.5c1.1,0.6,2,1.1,2.8,1.9
		c0.7,0.7,1.7,1.9,1.6,3.1c-0.1,1.7-0.9,2.4-2.1,3.2c-5.3,3.4-17.9,1.8-22.5-2.6C237.8,145.9,236.8,144.6,236.9,143.2z"/>
	<path class="st0" d="M62,162c0.1,0,24.3,2.2,24.9,2.1c0.3-0.1,20.6-13.2,20.9-13.6c-1-0.3-24.5-1.6-24.7-1.5
		c-0.6,0.2-14.1,8.6-15.8,9.7C66.1,159.5,62.9,161.2,62,162L62,162z"/>
	<path class="st3" d="M75.2,178.5c1,0.1,2.5,0.6,3.6,0.8c4.1,0.7,7.7,1.1,12,0c2.8-0.7,5.4-2,7.6-3.4c1.1-0.7,2.1-1.5,3-2.2
		c0.9-0.7,1.9-1.8,2.7-2.3l-2.9-11.7c-1.9,1.1-12.4,8.5-13.2,8.6c-0.6,0.1-13.8-1.4-15.8-1.4C72.3,166.8,75.2,178.5,75.2,178.5z"/>
	<path class="st3" d="M66.1,166.2c0.4,2.2,1.1,4.4,1.6,6.6c0.3,1.1-0.4,1.2,0,2.7c0.6,2.2,3.3,2.1,3.4-0.1c0.1-1.7-0.9-2.2-1.1-2.4
		c-0.5-0.6-1.2-5.1-1.7-6.3C68.3,166.6,66.1,166.2,66.1,166.2z"/>
</g>
</svg>
